<svg width="13" height="13" viewBox="0 0 13 13" fill="none" xmlns="http://www.w3.org/2000/svg">
<g clip-path="url(#clip0_683_1330)">
<rect x="11" y="12" width="1" height="1" fill="black"/>
<rect x="2" y="1" width="1" height="1" transform="rotate(-180 2 1)" fill="black"/>
<rect x="9" y="12" width="1" height="1" fill="black"/>
<rect x="4" y="1" width="1" height="1" transform="rotate(-180 4 1)" fill="black"/>
<rect x="9" y="3" width="1" height="1" fill="black"/>
<rect x="4" y="10" width="1" height="1" transform="rotate(180 4 10)" fill="black"/>
<rect x="12" y="12" width="1" height="1" fill="black"/>
<rect x="1" y="1" width="1" height="1" transform="rotate(-180 1 1)" fill="black"/>
<rect x="10" y="12" width="1" height="1" fill="black"/>
<rect x="3" y="1" width="1" height="1" transform="rotate(-180 3 1)" fill="black"/>
<rect x="10" y="3" width="1" height="1" fill="black"/>
<rect x="3" y="10" width="1" height="1" transform="rotate(180 3 10)" fill="black"/>
<rect x="10" y="11" width="1" height="1" fill="black"/>
<rect x="3" y="2" width="1" height="1" transform="rotate(-180 3 2)" fill="black"/>
<rect x="10" y="2" width="1" height="1" fill="black"/>
<rect x="3" y="11" width="1" height="1" transform="rotate(180 3 11)" fill="black"/>
<rect x="10" y="5" width="1" height="1" fill="black"/>
<rect x="3" y="8" width="1" height="1" transform="rotate(180 3 8)" fill="black"/>
<rect opacity="0.5" x="11" y="11" width="1" height="1" fill="black"/>
<rect opacity="0.5" x="2" y="2" width="1" height="1" transform="rotate(-180 2 2)" fill="black"/>
<rect opacity="0.5" x="11" y="2" width="1" height="1" fill="black"/>
<rect opacity="0.5" x="2" y="11" width="1" height="1" transform="rotate(180 2 11)" fill="black"/>
<rect opacity="0.5" x="11" y="4" width="1" height="1" fill="black"/>
<rect opacity="0.5" x="2" y="9" width="1" height="1" transform="rotate(180 2 9)" fill="black"/>
<rect opacity="0.5" x="9" y="11" width="1" height="1" fill="black"/>
<rect opacity="0.5" x="4" y="2" width="1" height="1" transform="rotate(-180 4 2)" fill="black"/>
<rect opacity="0.5" x="9" y="2" width="1" height="1" fill="black"/>
<rect opacity="0.5" x="4" y="11" width="1" height="1" transform="rotate(180 4 11)" fill="black"/>
<rect opacity="0.5" x="9" y="4" width="1" height="1" fill="black"/>
<rect opacity="0.5" x="4" y="9" width="1" height="1" transform="rotate(180 4 9)" fill="black"/>
<rect x="10" y="10" width="1" height="1" fill="black"/>
<rect x="3" y="3" width="1" height="1" transform="rotate(-180 3 3)" fill="black"/>
<rect x="10" y="1" width="1" height="1" fill="black"/>
<rect x="3" y="12" width="1" height="1" transform="rotate(180 3 12)" fill="black"/>
<rect x="10" y="4" width="1" height="1" fill="black"/>
<rect x="3" y="9" width="1" height="1" transform="rotate(180 3 9)" fill="black"/>
<rect x="10" y="9" width="1" height="1" fill="black"/>
<rect x="3" y="4" width="1" height="1" transform="rotate(-180 3 4)" fill="black"/>
<rect x="10" width="1" height="1" fill="black"/>
<rect x="3" y="13" width="1" height="1" transform="rotate(180 3 13)" fill="black"/>
<rect x="8" y="12" width="1" height="1" fill="black"/>
<rect x="5" y="1" width="1" height="1" transform="rotate(-180 5 1)" fill="black"/>
<rect x="8" y="3" width="1" height="1" fill="black"/>
<rect x="5" y="10" width="1" height="1" transform="rotate(180 5 10)" fill="black"/>
<rect x="12" y="3" width="1" height="1" fill="black"/>
<rect x="1" y="10" width="1" height="1" transform="rotate(180 1 10)" fill="black"/>
<rect x="7" y="12" width="1" height="1" fill="black"/>
<rect x="6" y="1" width="1" height="1" transform="rotate(-180 6 1)" fill="black"/>
<rect x="7" y="3" width="1" height="1" fill="black"/>
<rect x="6" y="10" width="1" height="1" transform="rotate(180 6 10)" fill="black"/>
<rect x="11" y="3" width="1" height="1" fill="black"/>
<rect x="2" y="10" width="1" height="1" transform="rotate(180 2 10)" fill="black"/>
</g>
<defs>
<clipPath id="clip0_683_1330">
<rect width="13" height="13" fill="white"/>
</clipPath>
</defs>
</svg>
