<svg width="14" height="14" viewBox="0 0 14 14" fill="none" xmlns="http://www.w3.org/2000/svg">
<path d="M3 3H4V4H3V3Z" fill="black"/>
<path d="M4 4H5V5H4V4Z" fill="black"/>
<path d="M5 5H6V6H5V5Z" fill="black"/>
<path d="M6 5H7V6H6V5Z" fill="black"/>
<path d="M7 5H8V6H7V5Z" fill="black"/>
<path d="M8 5H9V6H8V5Z" fill="black"/>
<path d="M9 5H10V6H9V5Z" fill="black"/>
<path d="M8 4H9V5H8V4Z" fill="black"/>
<path d="M9 3H10V4H9V3Z" fill="black"/>
<path d="M10 2H11V3H10V2Z" fill="black"/>
<path d="M11 3H12V4H11V3Z" fill="black"/>
<path d="M10 4H11V5H10V4Z" fill="black"/>
<path d="M5 4H6V5H5V4Z" fill="black"/>
<path d="M4 5H5V6H4V5Z" fill="black"/>
<path d="M3 4H4V5H3V4Z" fill="black"/>
<path d="M4 3H5V4H4V3Z" fill="black"/>
<path d="M3 2H4V3H3V2Z" fill="black"/>
<path d="M2 3H3V4H2V3Z" fill="black"/>
<path d="M8 6H9V7H8V6Z" fill="black"/>
<path d="M8 7H9V8H8V7Z" fill="black"/>
<path d="M8 8H9V9H8V8Z" fill="black"/>
<path d="M7 8H8V9H7V8Z" fill="black"/>
<path d="M6 8H7V9H6V8Z" fill="black"/>
<path d="M5 8H6V9H5V8Z" fill="black"/>
<path d="M5 7H6V8H5V7Z" fill="black"/>
<path d="M5 6H6V7H5V6Z" fill="black"/>
<path d="M4 9H5V10H4V9Z" fill="black"/>
<path d="M3 10H4V11H3V10Z" fill="black"/>
<path d="M9 9H10V10H9V9Z" fill="black"/>
<path d="M10 10H11V11H10V10Z" fill="black"/>
<path d="M10 9H11V10H10V9Z" fill="black"/>
<path d="M9 8H10V9H9V8Z" fill="black"/>
<path d="M8 9H9V10H8V9Z" fill="black"/>
<path d="M9 10H10V11H9V10Z" fill="black"/>
<path d="M10 11H11V12H10V11Z" fill="black"/>
<path d="M11 10H12V11H11V10Z" fill="black"/>
<path d="M2 10H3V11H2V10Z" fill="black"/>
<path d="M3 11H4V12H3V11Z" fill="black"/>
<path d="M4 10H5V11H4V10Z" fill="black"/>
<path d="M3 9H4V10H3V9Z" fill="black"/>
<path d="M4 8H5V9H4V8Z" fill="black"/>
<path d="M5 9H6V10H5V9Z" fill="black"/>
<path d="M9 4H10V5H9V4Z" fill="black"/>
<path d="M10 3H11V4H10V3Z" fill="black"/>
<path d="M2 0H3V1H2V0Z" fill="black"/>
<path d="M1 1H2V2H1V1Z" fill="black"/>
<path d="M0 2H1V3H0V2Z" fill="black"/>
<path d="M0 3H1V4H0V3Z" fill="black"/>
<path d="M0 4H1V5H0V4Z" fill="black"/>
<path d="M0 5H1V6H0V5Z" fill="black"/>
<path d="M0 6H1V7H0V6Z" fill="black"/>
<path d="M0 7H1V8H0V7Z" fill="black"/>
<path d="M0 8H1V9H0V8Z" fill="black"/>
<path d="M0 9H1V10H0V9Z" fill="black"/>
<path d="M0 10H1V11H0V10Z" fill="black"/>
<path d="M0 11H1V12H0V11Z" fill="black"/>
<path d="M2 13H3V14H2V13Z" fill="black"/>
<path d="M3 13H4V14H3V13Z" fill="black"/>
<path d="M4 13H5V14H4V13Z" fill="black"/>
<path d="M5 13H6V14H5V13Z" fill="black"/>
<path d="M6 13H7V14H6V13Z" fill="black"/>
<path d="M7 13H8V14H7V13Z" fill="black"/>
<path d="M9 13H10V14H9V13Z" fill="black"/>
<path d="M8 13H9V14H8V13Z" fill="black"/>
<path d="M10 13H11V14H10V13Z" fill="black"/>
<path d="M3 0H4V1H3V0Z" fill="black"/>
<path d="M4 0H5V1H4V0Z" fill="black"/>
<path d="M5 0H6V1H5V0Z" fill="black"/>
<path d="M6 0H7V1H6V0Z" fill="black"/>
<path d="M7 0H8V1H7V0Z" fill="black"/>
<path d="M8 0H9V1H8V0Z" fill="black"/>
<path d="M9 0H10V1H9V0Z" fill="black"/>
<path d="M10 0H11V1H10V0Z" fill="black"/>
<path d="M11 0H12V1H11V0Z" fill="black"/>
<path d="M13 2H14V3H13V2Z" fill="black"/>
<path d="M13 3H14V4H13V3Z" fill="black"/>
<path d="M13 4H14V5H13V4Z" fill="black"/>
<path d="M13 5H14V6H13V5Z" fill="black"/>
<path d="M13 6H14V7H13V6Z" fill="black"/>
<path d="M13 7H14V8H13V7Z" fill="black"/>
<path d="M13 8H14V9H13V8Z" fill="black"/>
<path d="M13 9H14V10H13V9Z" fill="black"/>
<path d="M13 10H14V11H13V10Z" fill="black"/>
<path d="M13 11H14V12H13V11Z" fill="black"/>
<path d="M12 12H13V13H12V12Z" fill="black"/>
<path d="M11 13H12V14H11V13Z" fill="black"/>
<path d="M1 12H2V13H1V12Z" fill="black"/>
<path d="M12 1H13V2H12V1Z" fill="black"/>
</svg>
