<svg width="111" height="21" viewBox="0 0 111 21" fill="none" xmlns="http://www.w3.org/2000/svg">
<path d="M51.8763 21V9.17729H48.9544V6.23795H46V0H49.279V5.91135H52.201V8.88336H54.8632V5.91135H57.7851V0H61.0966V6.23795H58.1097V9.17729H55.1878V21H51.8763Z" fill="black"/>
<path d="M67.3432 21V18.0607H64.3888V11.79H67.3432V8.88336H76.1739V3.2986H67.6679V6.23795H64.3888V0H76.4985V2.97201H79.4854V9.17729H76.4985V12.1166H67.6679V17.7341H76.1739V14.7621H79.4854V21H67.3432Z" fill="black"/>
<path d="M88.6539 21V3.2986H86.0567V6.23795H82.7776V2.97201H85.732V0H88.9786V2.97201H91.9654V21H88.6539Z" fill="black"/>
<path d="M98.8578 21V18.0607H95.9034V14.7621H99.1825V17.7341H107.688V12.1166H98.8578V8.88336H107.688V3.2986H99.1825V6.23795H95.9034V2.97201H98.8578V0H108.013V2.97201H111V9.17729H108.013V11.79H111V18.0607H108.013V21H98.8578Z" fill="black"/>
<path d="M4 3V0H7V3H5V6H3V15H5V18H7V21H4V18H2V15H0V6H2V3H4Z" fill="black"/>
<path d="M32 0V3H34V6H36V15H34V18H32V21H35V18H37V15H39V6H37V3H35V0H32Z" fill="black"/>
<path d="M9 15V21H30V15H27V9H24V5H21V0H18V5H15V9H12V15H9Z" fill="black"/>
</svg>
